<?xml version="1.0" standalone="no"?>
<!DOCTYPE svg PUBLIC "-//W3C//DTD SVG 20010904//EN"
 "http://www.w3.org/TR/2001/REC-SVG-20010904/DTD/svg10.dtd">
<svg version="1.0" xmlns="http://www.w3.org/2000/svg"
 width="512.000000pt" height="512.000000pt" viewBox="0 0 512.000000 512.000000"
 preserveAspectRatio="xMidYMid meet">
<metadata>
Created by potrace 1.14, written by Peter Selinger 2001-2017
</metadata>
<g transform="translate(0.000000,512.000000) scale(0.100000,-0.100000)"
fill="#000000" stroke="none">
<path d="M2487 5114 c-1 -2 -16 -5 -32 -8 -51 -9 -148 -63 -199 -111 -26 -25
-80 -73 -118 -107 -39 -35 -91 -82 -117 -105 -25 -24 -53 -41 -61 -38 -87 25
-413 86 -462 87 -112 1 -215 -39 -299 -119 -79 -75 -88 -95 -207 -467 l-28
-89 -220 -72 c-143 -46 -236 -82 -265 -102 -123 -85 -194 -218 -191 -360 1
-48 60 -362 87 -463 4 -15 -5 -27 -149 -184 -125 -137 -126 -138 -157 -186
-46 -69 -69 -161 -65 -250 5 -113 43 -202 123 -286 21 -22 72 -78 113 -125 41
-46 77 -86 80 -89 3 -3 17 -19 32 -36 l28 -30 -41 -184 c-52 -236 -48 -215
-51 -280 -4 -113 31 -212 102 -293 78 -88 121 -110 395 -197 88 -28 165 -54
171 -58 6 -4 27 -61 48 -127 96 -302 93 -294 145 -371 84 -124 272 -202 411
-173 19 4 46 10 60 12 39 7 323 68 340 72 8 3 38 -17 67 -43 28 -26 82 -74
118 -107 37 -33 86 -77 109 -98 88 -81 174 -117 288 -122 116 -6 227 33 308
108 19 17 80 72 135 122 55 50 113 102 130 117 19 17 37 26 50 23 199 -47 413
-87 460 -88 192 -1 355 125 418 323 18 56 13 90 -15 113 l-22 18 23 70 c21 64
24 69 51 69 29 0 70 38 70 65 0 15 14 21 200 80 264 85 295 100 368 180 81 88
117 184 114 305 -2 59 -2 59 -27 165 -9 39 -18 86 -21 105 -3 19 -8 38 -10 41
-2 3 -6 21 -9 40 -3 19 -10 52 -15 74 -9 40 -6 47 50 105 3 3 43 48 90 100 47
52 98 108 113 125 36 38 76 105 95 158 21 60 24 186 5 250 -29 99 -49 128
-207 301 -44 49 -98 108 -118 130 -25 27 -36 48 -33 61 98 440 103 485 66 594
-32 94 -87 167 -161 217 -59 40 -91 52 -310 122 -160 52 -185 63 -191 83 -51
167 -136 413 -156 446 -32 55 -119 134 -177 162 -113 53 -194 56 -376 16 -41
-9 -86 -19 -100 -21 -14 -3 -63 -14 -110 -24 l-85 -19 -25 22 c-13 12 -31 29
-40 37 -8 8 -53 49 -99 90 -47 41 -101 90 -120 108 -55 51 -150 99 -217 111
-53 10 -149 13 -157 5z"/>
</g>
</svg>
